<svg xmlns="http://www.w3.org/2000/svg" viewBox="0 0 1351.68 675.84"><rect width="1351.68" height="675.84" fill="#4e4e4e" id="bg" class="bg"/><g><g transform="translate(0.00,&#10;                                0.00) rotate(180, 67.584, 67.584)"><svg xmlns="http://www.w3.org/2000/svg" id="Layer_1" data-name="Layer 1" viewBox="0 0 100 100" width="135.168" height="135.168"><polygon points="100 15.4 100 20.99 84.28 5.6 67.13 22.4 49.99 5.6 32.85 22.4 15.71 5.6 0 21 0 15.4 15.71 0 32.85 16.8 49.99 0 67.13 16.8 84.28 0 100 15.4" fill="#e8e8e8"/><polygon points="100 34.8 100 40.39 84.28 25 67.13 41.8 49.99 25 32.85 41.8 15.71 25 0 40.4 0 34.8 15.71 19.4 32.85 36.2 49.99 19.4 67.13 36.2 84.28 19.4 100 34.8" fill="#e8e8e8"/><polygon points="100 73.6 100 79.19 84.28 63.8 67.13 80.6 49.99 63.8 32.85 80.6 15.71 63.8 0 79.2 0 73.6 15.71 58.2 32.85 75 49.99 58.2 67.13 75 84.28 58.2 100 73.6" fill="#e8e8e8"/><polygon points="100 54.2 100 59.79 84.28 44.4 67.13 61.2 49.99 44.4 32.85 61.2 15.71 44.4 0 59.8 0 54.2 15.71 38.8 32.85 55.6 49.99 38.8 67.13 55.6 84.28 38.8 100 54.2" fill="#e8e8e8"/><polygon points="100 93 100 98.59 84.28 83.2 67.13 100 49.99 83.2 32.85 100 15.71 83.2 0 98.6 0 93 15.71 77.6 32.85 94.4 49.99 77.6 67.13 94.4 84.28 77.6 100 93" fill="#e8e8e8"/></svg></g><g transform="translate(0.00,&#10;                                135.17) rotate(270, 67.584, 67.584)"><svg xmlns="http://www.w3.org/2000/svg" id="Layer_1" data-name="Layer 1" viewBox="0 0 100 100" width="135.168" height="135.168"><polygon points="22.113 90.604 100 90.604 61.056 21.651 22.113 90.604" fill="#ffce62"/><polygon points="6 80.349 83.887 80.349 44.944 11.396 6 80.349" fill="none" stroke="#adadad" stroke-linecap="round" stroke-miterlimit="10" stroke-width="6"/></svg></g><g transform="translate(270.34,&#10;                                0.00) rotate(0, 67.584, 67.584)"><svg xmlns="http://www.w3.org/2000/svg" id="Layer_1" data-name="Layer 1" viewBox="0 0 100 100" width="135.168" height="135.168"><polygon points="100 15.4 100 20.99 84.28 5.6 67.13 22.4 49.99 5.6 32.85 22.4 15.71 5.6 0 21 0 15.4 15.71 0 32.85 16.8 49.99 0 67.13 16.8 84.28 0 100 15.4" fill="#e8e8e8"/><polygon points="100 34.8 100 40.39 84.28 25 67.13 41.8 49.99 25 32.85 41.8 15.71 25 0 40.4 0 34.8 15.71 19.4 32.85 36.2 49.99 19.4 67.13 36.2 84.28 19.4 100 34.8" fill="#e8e8e8"/><polygon points="100 73.6 100 79.19 84.28 63.8 67.13 80.6 49.99 63.8 32.85 80.6 15.71 63.8 0 79.2 0 73.6 15.71 58.2 32.85 75 49.99 58.2 67.13 75 84.28 58.2 100 73.6" fill="#e8e8e8"/><polygon points="100 54.2 100 59.79 84.28 44.4 67.13 61.2 49.99 44.4 32.85 61.2 15.71 44.4 0 59.8 0 54.2 15.71 38.8 32.85 55.6 49.99 38.8 67.13 55.6 84.28 38.8 100 54.2" fill="#e8e8e8"/><polygon points="100 93 100 98.59 84.28 83.2 67.13 100 49.99 83.2 32.85 100 15.71 83.2 0 98.6 0 93 15.71 77.6 32.85 94.4 49.99 77.6 67.13 94.4 84.28 77.6 100 93" fill="#e8e8e8"/></svg></g><g transform="translate(270.34,&#10;                                135.17) rotate(180, 67.584, 67.584)"><svg xmlns="http://www.w3.org/2000/svg" id="Layer_1" data-name="Layer 1" viewBox="0 0 100 100" width="135.168" height="135.168"><polyline points="97 3 73.5 3 73.5 26.592 50 26.592 50 50 26.5 50 26.5 73.5 3 73.5 3 97" fill="none" stroke="#ffce62" stroke-linecap="round" stroke-linejoin="round" stroke-width="6"/></svg></g><g transform="translate(405.50,&#10;                                135.17) rotate(90, 67.584, 67.584)"><svg xmlns="http://www.w3.org/2000/svg" id="Layer_1" data-name="Layer 1" viewBox="0 0 100 100" width="135.168" height="135.168"><polygon points="97 12.912 87.088 3 50 40.088 12.912 3 3 12.912 40.088 50 3 87.088 12.912 97 50 59.912 87.088 97 97 87.088 59.912 50 97 12.912" fill="none" stroke="#ffce62" stroke-linecap="round" stroke-linejoin="round" stroke-width="6"/></svg></g><g transform="translate(540.67,&#10;                                0.00) rotate(180, 67.584, 67.584)"><svg xmlns="http://www.w3.org/2000/svg" id="Layer_1" data-name="Layer 1" viewBox="0 0 100 100" width="135.168" height="135.168"><polygon points="100 15.4 100 20.99 84.28 5.6 67.13 22.4 49.99 5.6 32.85 22.4 15.71 5.6 0 21 0 15.4 15.71 0 32.85 16.8 49.99 0 67.13 16.8 84.28 0 100 15.4" fill="#e8e8e8"/><polygon points="100 34.8 100 40.39 84.28 25 67.13 41.8 49.99 25 32.85 41.8 15.71 25 0 40.4 0 34.8 15.71 19.4 32.85 36.2 49.99 19.4 67.13 36.2 84.28 19.4 100 34.8" fill="#e8e8e8"/><polygon points="100 73.6 100 79.19 84.28 63.8 67.13 80.6 49.99 63.8 32.85 80.6 15.71 63.8 0 79.2 0 73.6 15.71 58.2 32.85 75 49.99 58.2 67.13 75 84.28 58.2 100 73.6" fill="#e8e8e8"/><polygon points="100 54.2 100 59.79 84.28 44.4 67.13 61.2 49.99 44.4 32.85 61.2 15.71 44.4 0 59.8 0 54.2 15.71 38.8 32.85 55.6 49.99 38.8 67.13 55.6 84.28 38.8 100 54.2" fill="#e8e8e8"/><polygon points="100 93 100 98.59 84.28 83.2 67.13 100 49.99 83.2 32.85 100 15.71 83.2 0 98.6 0 93 15.71 77.6 32.85 94.4 49.99 77.6 67.13 94.4 84.28 77.6 100 93" fill="#e8e8e8"/></svg></g><g transform="translate(811.01,&#10;                                0.00) rotate(270, 67.584, 67.584)"><svg xmlns="http://www.w3.org/2000/svg" id="Layer_1" data-name="Layer 1" viewBox="0 0 100 100" width="135.168" height="135.168"><polygon points="100 15.4 100 20.99 84.28 5.6 67.13 22.4 49.99 5.6 32.85 22.4 15.71 5.6 0 21 0 15.4 15.71 0 32.85 16.8 49.99 0 67.13 16.8 84.28 0 100 15.4" fill="#e8e8e8"/><polygon points="100 34.8 100 40.39 84.28 25 67.13 41.8 49.99 25 32.85 41.8 15.71 25 0 40.4 0 34.8 15.71 19.4 32.85 36.2 49.99 19.4 67.13 36.2 84.28 19.4 100 34.8" fill="#e8e8e8"/><polygon points="100 73.6 100 79.19 84.28 63.8 67.13 80.6 49.99 63.8 32.85 80.6 15.71 63.8 0 79.2 0 73.6 15.71 58.2 32.85 75 49.99 58.2 67.13 75 84.28 58.2 100 73.6" fill="#e8e8e8"/><polygon points="100 54.2 100 59.79 84.28 44.4 67.13 61.2 49.99 44.4 32.85 61.2 15.71 44.4 0 59.8 0 54.2 15.71 38.8 32.85 55.6 49.99 38.8 67.13 55.6 84.28 38.8 100 54.2" fill="#e8e8e8"/><polygon points="100 93 100 98.59 84.28 83.2 67.13 100 49.99 83.2 32.85 100 15.71 83.2 0 98.6 0 93 15.71 77.6 32.85 94.4 49.99 77.6 67.13 94.4 84.28 77.6 100 93" fill="#e8e8e8"/></svg></g><g transform="translate(811.01,&#10;                                135.17) rotate(180, 67.584, 67.584)"><svg xmlns="http://www.w3.org/2000/svg" id="Layer_1" data-name="Layer 1" viewBox="0 0 100 100" width="135.168" height="135.168"><polyline points="97 3 73.5 3 73.5 26.592 50 26.592 50 50 26.5 50 26.5 73.5 3 73.5 3 97" fill="none" stroke="#ffce62" stroke-linecap="round" stroke-linejoin="round" stroke-width="6"/></svg></g><g transform="translate(1081.34,&#10;                                0.00) rotate(0, 67.584, 67.584)"><svg xmlns="http://www.w3.org/2000/svg" id="Layer_1" data-name="Layer 1" viewBox="0 0 100 100" width="135.168" height="135.168"><polygon points="100 15.4 100 20.99 84.28 5.6 67.13 22.4 49.99 5.6 32.85 22.4 15.71 5.6 0 21 0 15.4 15.71 0 32.85 16.8 49.99 0 67.13 16.8 84.28 0 100 15.4" fill="#e8e8e8"/><polygon points="100 34.8 100 40.39 84.28 25 67.13 41.8 49.99 25 32.85 41.8 15.71 25 0 40.4 0 34.8 15.71 19.4 32.85 36.2 49.99 19.4 67.13 36.2 84.28 19.4 100 34.8" fill="#e8e8e8"/><polygon points="100 73.6 100 79.19 84.28 63.8 67.13 80.6 49.99 63.8 32.85 80.6 15.71 63.8 0 79.2 0 73.6 15.71 58.2 32.85 75 49.99 58.2 67.13 75 84.28 58.2 100 73.6" fill="#e8e8e8"/><polygon points="100 54.2 100 59.79 84.28 44.4 67.13 61.2 49.99 44.4 32.85 61.2 15.71 44.4 0 59.8 0 54.2 15.71 38.8 32.85 55.6 49.99 38.8 67.13 55.6 84.28 38.8 100 54.2" fill="#e8e8e8"/><polygon points="100 93 100 98.59 84.28 83.2 67.13 100 49.99 83.2 32.85 100 15.71 83.2 0 98.6 0 93 15.71 77.6 32.85 94.4 49.99 77.6 67.13 94.4 84.28 77.6 100 93" fill="#e8e8e8"/></svg></g></g><g><g transform="translate(0.00,&#10;                                270.34) rotate(0, 67.584, 67.584)"><svg xmlns="http://www.w3.org/2000/svg" id="Layer_1" data-name="Layer 1" viewBox="0 0 100 100" width="135.168" height="135.168"><polygon points="100 15.4 100 20.99 84.28 5.6 67.13 22.4 49.99 5.6 32.85 22.4 15.71 5.6 0 21 0 15.4 15.71 0 32.85 16.8 49.99 0 67.13 16.8 84.28 0 100 15.4" fill="#e8e8e8"/><polygon points="100 34.8 100 40.39 84.28 25 67.13 41.8 49.99 25 32.85 41.8 15.71 25 0 40.4 0 34.8 15.71 19.4 32.85 36.2 49.99 19.4 67.13 36.2 84.28 19.4 100 34.8" fill="#e8e8e8"/><polygon points="100 73.6 100 79.19 84.28 63.8 67.13 80.6 49.99 63.8 32.85 80.6 15.71 63.8 0 79.2 0 73.6 15.71 58.2 32.85 75 49.99 58.2 67.13 75 84.28 58.2 100 73.6" fill="#e8e8e8"/><polygon points="100 54.2 100 59.79 84.28 44.4 67.13 61.2 49.99 44.4 32.85 61.2 15.71 44.4 0 59.8 0 54.2 15.71 38.8 32.85 55.6 49.99 38.8 67.13 55.6 84.28 38.8 100 54.2" fill="#e8e8e8"/><polygon points="100 93 100 98.59 84.28 83.2 67.13 100 49.99 83.2 32.85 100 15.71 83.2 0 98.6 0 93 15.71 77.6 32.85 94.4 49.99 77.6 67.13 94.4 84.28 77.6 100 93" fill="#e8e8e8"/></svg></g><g transform="translate(0.00,&#10;                                405.50) rotate(0, 67.584, 67.584)"><svg xmlns="http://www.w3.org/2000/svg" id="Layer_1" data-name="Layer 1" viewBox="0 0 100 100" width="135.168" height="135.168"><polygon points="22.113 90.604 100 90.604 61.056 21.651 22.113 90.604" fill="#ffce62"/><polygon points="6 80.349 83.887 80.349 44.944 11.396 6 80.349" fill="none" stroke="#adadad" stroke-linecap="round" stroke-miterlimit="10" stroke-width="6"/></svg></g><g transform="translate(270.34,&#10;                                270.34) rotate(90, 67.584, 67.584)"><svg xmlns="http://www.w3.org/2000/svg" id="Layer_1" data-name="Layer 1" viewBox="0 0 100 100" width="135.168" height="135.168"><polygon points="100 15.4 100 20.99 84.28 5.6 67.13 22.4 49.99 5.6 32.85 22.4 15.71 5.6 0 21 0 15.4 15.71 0 32.85 16.8 49.99 0 67.13 16.8 84.28 0 100 15.4" fill="#e8e8e8"/><polygon points="100 34.8 100 40.39 84.28 25 67.13 41.8 49.99 25 32.85 41.8 15.71 25 0 40.4 0 34.8 15.71 19.4 32.85 36.2 49.99 19.4 67.13 36.2 84.28 19.4 100 34.8" fill="#e8e8e8"/><polygon points="100 73.6 100 79.19 84.28 63.8 67.13 80.6 49.99 63.8 32.85 80.6 15.71 63.8 0 79.2 0 73.6 15.71 58.2 32.85 75 49.99 58.2 67.13 75 84.28 58.2 100 73.6" fill="#e8e8e8"/><polygon points="100 54.2 100 59.79 84.28 44.4 67.13 61.2 49.99 44.4 32.85 61.2 15.71 44.4 0 59.8 0 54.2 15.71 38.8 32.85 55.6 49.99 38.8 67.13 55.6 84.28 38.8 100 54.2" fill="#e8e8e8"/><polygon points="100 93 100 98.59 84.28 83.2 67.13 100 49.99 83.2 32.85 100 15.71 83.2 0 98.6 0 93 15.71 77.6 32.85 94.4 49.99 77.6 67.13 94.4 84.28 77.6 100 93" fill="#e8e8e8"/></svg></g><g transform="translate(270.34,&#10;                                405.50) rotate(0, 67.584, 67.584)"><svg xmlns="http://www.w3.org/2000/svg" id="Layer_1" data-name="Layer 1" viewBox="0 0 100 100" width="135.168" height="135.168"><polyline points="97 3 73.5 3 73.5 26.592 50 26.592 50 50 26.5 50 26.5 73.5 3 73.5 3 97" fill="none" stroke="#ffce62" stroke-linecap="round" stroke-linejoin="round" stroke-width="6"/></svg></g><g transform="translate(405.50,&#10;                                405.50) rotate(270, 67.584, 67.584)"><svg xmlns="http://www.w3.org/2000/svg" id="Layer_1" data-name="Layer 1" viewBox="0 0 100 100" width="135.168" height="135.168"><polygon points="100 15.4 100 20.99 84.28 5.6 67.13 22.4 49.99 5.6 32.85 22.4 15.71 5.6 0 21 0 15.4 15.71 0 32.85 16.8 49.99 0 67.13 16.8 84.28 0 100 15.4" fill="#e8e8e8"/><polygon points="100 34.8 100 40.39 84.28 25 67.13 41.8 49.99 25 32.85 41.8 15.71 25 0 40.4 0 34.8 15.71 19.4 32.85 36.2 49.99 19.4 67.13 36.2 84.28 19.4 100 34.8" fill="#e8e8e8"/><polygon points="100 73.6 100 79.19 84.28 63.8 67.13 80.6 49.99 63.8 32.85 80.6 15.71 63.8 0 79.2 0 73.6 15.71 58.2 32.85 75 49.99 58.2 67.13 75 84.28 58.2 100 73.6" fill="#e8e8e8"/><polygon points="100 54.2 100 59.79 84.28 44.4 67.13 61.2 49.99 44.4 32.85 61.2 15.71 44.4 0 59.8 0 54.2 15.71 38.8 32.85 55.6 49.99 38.8 67.13 55.6 84.28 38.8 100 54.2" fill="#e8e8e8"/><polygon points="100 93 100 98.59 84.28 83.2 67.13 100 49.99 83.2 32.85 100 15.71 83.2 0 98.6 0 93 15.71 77.6 32.85 94.4 49.99 77.6 67.13 94.4 84.28 77.6 100 93" fill="#e8e8e8"/></svg></g><g transform="translate(540.67,&#10;                                270.34) rotate(180, 67.584, 67.584)"><svg xmlns="http://www.w3.org/2000/svg" id="Layer_1" data-name="Layer 1" viewBox="0 0 100 100" width="135.168" height="135.168"><polygon points="100 15.4 100 20.99 84.28 5.6 67.13 22.4 49.99 5.6 32.85 22.4 15.71 5.6 0 21 0 15.4 15.71 0 32.85 16.8 49.99 0 67.13 16.8 84.28 0 100 15.4" fill="#e8e8e8"/><polygon points="100 34.8 100 40.39 84.28 25 67.13 41.8 49.99 25 32.85 41.8 15.71 25 0 40.4 0 34.8 15.71 19.4 32.85 36.2 49.99 19.4 67.13 36.2 84.28 19.4 100 34.8" fill="#e8e8e8"/><polygon points="100 73.6 100 79.19 84.28 63.8 67.13 80.6 49.99 63.8 32.85 80.6 15.71 63.8 0 79.2 0 73.6 15.71 58.2 32.85 75 49.99 58.2 67.13 75 84.28 58.2 100 73.6" fill="#e8e8e8"/><polygon points="100 54.2 100 59.79 84.28 44.4 67.13 61.2 49.99 44.4 32.85 61.2 15.71 44.4 0 59.8 0 54.2 15.71 38.8 32.85 55.6 49.99 38.8 67.13 55.6 84.28 38.8 100 54.2" fill="#e8e8e8"/><polygon points="100 93 100 98.59 84.28 83.2 67.13 100 49.99 83.2 32.85 100 15.71 83.2 0 98.6 0 93 15.71 77.6 32.85 94.4 49.99 77.6 67.13 94.4 84.28 77.6 100 93" fill="#e8e8e8"/></svg></g><g transform="translate(675.84,&#10;                                270.34) rotate(270, 67.584, 67.584)"><svg xmlns="http://www.w3.org/2000/svg" id="Layer_1" data-name="Layer 1" viewBox="0 0 100 100" width="135.168" height="135.168"><polygon points="97 12.912 87.088 3 50 40.088 12.912 3 3 12.912 40.088 50 3 87.088 12.912 97 50 59.912 87.088 97 97 87.088 59.912 50 97 12.912" fill="none" stroke="#ffce62" stroke-linecap="round" stroke-linejoin="round" stroke-width="6"/></svg></g><g transform="translate(540.67,&#10;                                405.50) rotate(180, 67.584, 67.584)"><svg xmlns="http://www.w3.org/2000/svg" id="Layer_1" data-name="Layer 1" viewBox="0 0 100 100" width="135.168" height="135.168"><polygon points="22.113 90.604 100 90.604 61.056 21.651 22.113 90.604" fill="#ffce62"/><polygon points="6 80.349 83.887 80.349 44.944 11.396 6 80.349" fill="none" stroke="#adadad" stroke-linecap="round" stroke-miterlimit="10" stroke-width="6"/></svg></g><g transform="translate(811.01,&#10;                                270.34) rotate(90, 67.584, 67.584)"><svg xmlns="http://www.w3.org/2000/svg" id="Layer_1" data-name="Layer 1" viewBox="0 0 100 100" width="135.168" height="135.168"><polygon points="100 15.4 100 20.99 84.28 5.6 67.13 22.4 49.99 5.6 32.85 22.4 15.71 5.6 0 21 0 15.4 15.71 0 32.85 16.8 49.99 0 67.13 16.8 84.28 0 100 15.4" fill="#e8e8e8"/><polygon points="100 34.8 100 40.39 84.28 25 67.13 41.8 49.99 25 32.85 41.8 15.71 25 0 40.4 0 34.8 15.71 19.4 32.85 36.2 49.99 19.4 67.13 36.2 84.28 19.4 100 34.8" fill="#e8e8e8"/><polygon points="100 73.6 100 79.19 84.28 63.8 67.13 80.6 49.99 63.8 32.85 80.6 15.71 63.8 0 79.2 0 73.6 15.71 58.2 32.85 75 49.99 58.2 67.13 75 84.28 58.2 100 73.6" fill="#e8e8e8"/><polygon points="100 54.2 100 59.79 84.28 44.4 67.13 61.2 49.99 44.4 32.85 61.2 15.71 44.4 0 59.8 0 54.2 15.71 38.8 32.85 55.6 49.99 38.8 67.13 55.6 84.28 38.8 100 54.2" fill="#e8e8e8"/><polygon points="100 93 100 98.59 84.28 83.2 67.13 100 49.99 83.2 32.85 100 15.71 83.2 0 98.6 0 93 15.71 77.6 32.85 94.4 49.99 77.6 67.13 94.4 84.28 77.6 100 93" fill="#e8e8e8"/></svg></g><g transform="translate(946.18,&#10;                                270.34) rotate(270, 67.584, 67.584)"><svg xmlns="http://www.w3.org/2000/svg" id="Layer_1" data-name="Layer 1" viewBox="0 0 100 100" width="135.168" height="135.168"><polygon points="97 12.912 87.088 3 50 40.088 12.912 3 3 12.912 40.088 50 3 87.088 12.912 97 50 59.912 87.088 97 97 87.088 59.912 50 97 12.912" fill="none" stroke="#ffce62" stroke-linecap="round" stroke-linejoin="round" stroke-width="6"/></svg></g><g transform="translate(811.01,&#10;                                405.50) rotate(180, 67.584, 67.584)"><svg xmlns="http://www.w3.org/2000/svg" id="Layer_1" data-name="Layer 1" viewBox="0 0 100 100" width="135.168" height="135.168"><polygon points="97 12.912 87.088 3 50 40.088 12.912 3 3 12.912 40.088 50 3 87.088 12.912 97 50 59.912 87.088 97 97 87.088 59.912 50 97 12.912" fill="none" stroke="#ffce62" stroke-linecap="round" stroke-linejoin="round" stroke-width="6"/></svg></g><g transform="translate(1081.34,&#10;                                270.34) rotate(270, 67.584, 67.584)"><svg xmlns="http://www.w3.org/2000/svg" id="Layer_1" data-name="Layer 1" viewBox="0 0 100 100" width="135.168" height="135.168"><polyline points="97 3 73.5 3 73.5 26.592 50 26.592 50 50 26.5 50 26.5 73.5 3 73.5 3 97" fill="none" stroke="#ffce62" stroke-linecap="round" stroke-linejoin="round" stroke-width="6"/></svg></g><g transform="translate(1081.34,&#10;                                405.50) rotate(180, 67.584, 67.584)"><svg xmlns="http://www.w3.org/2000/svg" id="Layer_1" data-name="Layer 1" viewBox="0 0 100 100" width="135.168" height="135.168"><polygon points="22.113 90.604 100 90.604 61.056 21.651 22.113 90.604" fill="#ffce62"/><polygon points="6 80.349 83.887 80.349 44.944 11.396 6 80.349" fill="none" stroke="#adadad" stroke-linecap="round" stroke-miterlimit="10" stroke-width="6"/></svg></g><g transform="translate(1216.51,&#10;                                405.50) rotate(0, 67.584, 67.584)"><svg xmlns="http://www.w3.org/2000/svg" id="Layer_1" data-name="Layer 1" viewBox="0 0 100 100" width="135.168" height="135.168"><polygon points="100 15.4 100 20.99 84.28 5.6 67.13 22.4 49.99 5.6 32.85 22.4 15.71 5.6 0 21 0 15.4 15.71 0 32.85 16.8 49.99 0 67.13 16.8 84.28 0 100 15.4" fill="#e8e8e8"/><polygon points="100 34.8 100 40.39 84.28 25 67.13 41.8 49.99 25 32.85 41.8 15.71 25 0 40.4 0 34.8 15.71 19.4 32.85 36.2 49.99 19.4 67.13 36.2 84.28 19.4 100 34.8" fill="#e8e8e8"/><polygon points="100 73.6 100 79.19 84.28 63.8 67.13 80.6 49.99 63.8 32.85 80.6 15.71 63.8 0 79.2 0 73.6 15.71 58.2 32.85 75 49.99 58.2 67.13 75 84.28 58.2 100 73.6" fill="#e8e8e8"/><polygon points="100 54.2 100 59.79 84.28 44.4 67.13 61.2 49.99 44.4 32.85 61.2 15.71 44.4 0 59.8 0 54.2 15.71 38.8 32.85 55.6 49.99 38.8 67.13 55.6 84.28 38.8 100 54.2" fill="#e8e8e8"/><polygon points="100 93 100 98.59 84.28 83.2 67.13 100 49.99 83.2 32.85 100 15.71 83.2 0 98.6 0 93 15.71 77.6 32.85 94.4 49.99 77.6 67.13 94.4 84.28 77.6 100 93" fill="#e8e8e8"/></svg></g></g><g><g transform="translate(0.00,&#10;                                540.67) rotate(0, 67.584, 67.584)"><svg xmlns="http://www.w3.org/2000/svg" id="Layer_1" data-name="Layer 1" viewBox="0 0 100 100" width="135.168" height="135.168"><polygon points="100 15.4 100 20.99 84.28 5.6 67.13 22.4 49.99 5.6 32.85 22.4 15.71 5.6 0 21 0 15.4 15.71 0 32.85 16.8 49.99 0 67.13 16.8 84.28 0 100 15.4" fill="#e8e8e8"/><polygon points="100 34.8 100 40.39 84.28 25 67.13 41.8 49.99 25 32.85 41.8 15.71 25 0 40.4 0 34.8 15.71 19.4 32.85 36.2 49.99 19.4 67.13 36.2 84.28 19.4 100 34.8" fill="#e8e8e8"/><polygon points="100 73.6 100 79.19 84.28 63.8 67.13 80.6 49.99 63.8 32.85 80.6 15.71 63.8 0 79.2 0 73.6 15.71 58.2 32.85 75 49.99 58.2 67.13 75 84.28 58.2 100 73.6" fill="#e8e8e8"/><polygon points="100 54.2 100 59.79 84.28 44.4 67.13 61.2 49.99 44.4 32.85 61.2 15.71 44.4 0 59.8 0 54.2 15.71 38.8 32.85 55.6 49.99 38.8 67.13 55.6 84.28 38.8 100 54.2" fill="#e8e8e8"/><polygon points="100 93 100 98.59 84.28 83.2 67.13 100 49.99 83.2 32.85 100 15.71 83.2 0 98.6 0 93 15.71 77.6 32.85 94.4 49.99 77.6 67.13 94.4 84.28 77.6 100 93" fill="#e8e8e8"/></svg></g><g transform="translate(135.17,&#10;                                540.67) rotate(90, 67.584, 67.584)"><svg xmlns="http://www.w3.org/2000/svg" id="Layer_1" data-name="Layer 1" viewBox="0 0 100 100" width="135.168" height="135.168"><polygon points="100 15.4 100 20.99 84.28 5.6 67.13 22.4 49.99 5.6 32.85 22.4 15.71 5.6 0 21 0 15.4 15.71 0 32.85 16.8 49.99 0 67.13 16.8 84.28 0 100 15.4" fill="#e8e8e8"/><polygon points="100 34.8 100 40.39 84.28 25 67.13 41.8 49.99 25 32.85 41.8 15.71 25 0 40.4 0 34.8 15.71 19.4 32.85 36.2 49.99 19.4 67.13 36.2 84.28 19.4 100 34.8" fill="#e8e8e8"/><polygon points="100 73.6 100 79.19 84.28 63.8 67.13 80.6 49.99 63.8 32.85 80.6 15.71 63.8 0 79.2 0 73.6 15.71 58.2 32.85 75 49.99 58.2 67.13 75 84.28 58.2 100 73.6" fill="#e8e8e8"/><polygon points="100 54.2 100 59.79 84.28 44.4 67.13 61.2 49.99 44.4 32.85 61.2 15.71 44.4 0 59.8 0 54.2 15.71 38.8 32.85 55.6 49.99 38.8 67.13 55.6 84.28 38.8 100 54.2" fill="#e8e8e8"/><polygon points="100 93 100 98.59 84.28 83.2 67.13 100 49.99 83.2 32.85 100 15.71 83.2 0 98.6 0 93 15.71 77.6 32.85 94.4 49.99 77.6 67.13 94.4 84.28 77.6 100 93" fill="#e8e8e8"/></svg></g><g transform="translate(0.00,&#10;                                675.84) rotate(180, 67.584, 67.584)"><svg xmlns="http://www.w3.org/2000/svg" id="Layer_1" data-name="Layer 1" viewBox="0 0 100 100" width="135.168" height="135.168"><polygon points="22.113 90.604 100 90.604 61.056 21.651 22.113 90.604" fill="#ffce62"/><polygon points="6 80.349 83.887 80.349 44.944 11.396 6 80.349" fill="none" stroke="#adadad" stroke-linecap="round" stroke-miterlimit="10" stroke-width="6"/></svg></g><g transform="translate(135.17,&#10;                                675.84) rotate(0, 67.584, 67.584)"><svg xmlns="http://www.w3.org/2000/svg" id="Layer_1" data-name="Layer 1" viewBox="0 0 100 100" width="135.168" height="135.168"><polygon points="100 15.4 100 20.99 84.28 5.6 67.13 22.4 49.99 5.6 32.85 22.4 15.71 5.6 0 21 0 15.4 15.71 0 32.85 16.8 49.99 0 67.13 16.8 84.28 0 100 15.4" fill="#e8e8e8"/><polygon points="100 34.8 100 40.39 84.28 25 67.13 41.8 49.99 25 32.85 41.8 15.71 25 0 40.4 0 34.8 15.71 19.4 32.85 36.2 49.99 19.4 67.13 36.2 84.28 19.4 100 34.8" fill="#e8e8e8"/><polygon points="100 73.6 100 79.19 84.28 63.8 67.13 80.6 49.99 63.8 32.85 80.6 15.71 63.8 0 79.2 0 73.6 15.71 58.2 32.85 75 49.99 58.2 67.13 75 84.28 58.2 100 73.6" fill="#e8e8e8"/><polygon points="100 54.2 100 59.79 84.28 44.4 67.13 61.2 49.99 44.4 32.85 61.2 15.71 44.4 0 59.8 0 54.2 15.71 38.8 32.85 55.6 49.99 38.8 67.13 55.6 84.28 38.8 100 54.2" fill="#e8e8e8"/><polygon points="100 93 100 98.59 84.28 83.2 67.13 100 49.99 83.2 32.85 100 15.71 83.2 0 98.6 0 93 15.71 77.6 32.85 94.4 49.99 77.6 67.13 94.4 84.28 77.6 100 93" fill="#e8e8e8"/></svg></g><g transform="translate(270.34,&#10;                                540.67) rotate(90, 67.584, 67.584)"><svg xmlns="http://www.w3.org/2000/svg" id="Layer_1" data-name="Layer 1" viewBox="0 0 100 100" width="135.168" height="135.168"><polyline points="97 3 73.5 3 73.5 26.592 50 26.592 50 50 26.5 50 26.5 73.5 3 73.5 3 97" fill="none" stroke="#ffce62" stroke-linecap="round" stroke-linejoin="round" stroke-width="6"/></svg></g><g transform="translate(270.34,&#10;                                675.84) rotate(270, 67.584, 67.584)"><svg xmlns="http://www.w3.org/2000/svg" id="Layer_1" data-name="Layer 1" viewBox="0 0 100 100" width="135.168" height="135.168"><polygon points="22.113 90.604 100 90.604 61.056 21.651 22.113 90.604" fill="#ffce62"/><polygon points="6 80.349 83.887 80.349 44.944 11.396 6 80.349" fill="none" stroke="#adadad" stroke-linecap="round" stroke-miterlimit="10" stroke-width="6"/></svg></g><g transform="translate(405.50,&#10;                                675.84) rotate(270, 67.584, 67.584)"><svg xmlns="http://www.w3.org/2000/svg" id="Layer_1" data-name="Layer 1" viewBox="0 0 100 100" width="135.168" height="135.168"><polygon points="97 12.912 87.088 3 50 40.088 12.912 3 3 12.912 40.088 50 3 87.088 12.912 97 50 59.912 87.088 97 97 87.088 59.912 50 97 12.912" fill="none" stroke="#ffce62" stroke-linecap="round" stroke-linejoin="round" stroke-width="6"/></svg></g><g transform="translate(540.67,&#10;                                675.84) rotate(180, 67.584, 67.584)"><svg xmlns="http://www.w3.org/2000/svg" id="Layer_1" data-name="Layer 1" viewBox="0 0 100 100" width="135.168" height="135.168"><polygon points="22.113 90.604 100 90.604 61.056 21.651 22.113 90.604" fill="#ffce62"/><polygon points="6 80.349 83.887 80.349 44.944 11.396 6 80.349" fill="none" stroke="#adadad" stroke-linecap="round" stroke-miterlimit="10" stroke-width="6"/></svg></g><g transform="translate(811.01,&#10;                                540.67) rotate(270, 67.584, 67.584)"><svg xmlns="http://www.w3.org/2000/svg" id="Layer_1" data-name="Layer 1" viewBox="0 0 100 100" width="135.168" height="135.168"><polygon points="100 15.4 100 20.99 84.28 5.6 67.13 22.4 49.99 5.6 32.85 22.4 15.71 5.6 0 21 0 15.4 15.71 0 32.85 16.8 49.99 0 67.13 16.8 84.28 0 100 15.4" fill="#e8e8e8"/><polygon points="100 34.8 100 40.39 84.28 25 67.13 41.8 49.99 25 32.85 41.8 15.71 25 0 40.4 0 34.8 15.71 19.4 32.85 36.2 49.99 19.4 67.13 36.2 84.28 19.4 100 34.8" fill="#e8e8e8"/><polygon points="100 73.6 100 79.19 84.28 63.8 67.13 80.6 49.99 63.8 32.85 80.6 15.71 63.8 0 79.2 0 73.6 15.71 58.2 32.85 75 49.99 58.2 67.13 75 84.28 58.2 100 73.6" fill="#e8e8e8"/><polygon points="100 54.2 100 59.79 84.28 44.4 67.13 61.2 49.99 44.4 32.85 61.2 15.71 44.4 0 59.8 0 54.2 15.71 38.8 32.85 55.6 49.99 38.8 67.13 55.6 84.28 38.8 100 54.2" fill="#e8e8e8"/><polygon points="100 93 100 98.59 84.28 83.2 67.13 100 49.99 83.2 32.85 100 15.71 83.2 0 98.6 0 93 15.71 77.6 32.85 94.4 49.99 77.6 67.13 94.4 84.28 77.6 100 93" fill="#e8e8e8"/></svg></g><g transform="translate(946.18,&#10;                                540.67) rotate(180, 67.584, 67.584)"><svg xmlns="http://www.w3.org/2000/svg" id="Layer_1" data-name="Layer 1" viewBox="0 0 100 100" width="135.168" height="135.168"><polyline points="97 3 73.5 3 73.5 26.592 50 26.592 50 50 26.5 50 26.5 73.5 3 73.5 3 97" fill="none" stroke="#ffce62" stroke-linecap="round" stroke-linejoin="round" stroke-width="6"/></svg></g><g transform="translate(811.01,&#10;                                675.84) rotate(0, 67.584, 67.584)"><svg xmlns="http://www.w3.org/2000/svg" id="Layer_1" data-name="Layer 1" viewBox="0 0 100 100" width="135.168" height="135.168"><polygon points="22.113 90.604 100 90.604 61.056 21.651 22.113 90.604" fill="#ffce62"/><polygon points="6 80.349 83.887 80.349 44.944 11.396 6 80.349" fill="none" stroke="#adadad" stroke-linecap="round" stroke-miterlimit="10" stroke-width="6"/></svg></g><g transform="translate(1081.34,&#10;                                540.67) rotate(180, 67.584, 67.584)"><svg xmlns="http://www.w3.org/2000/svg" id="Layer_1" data-name="Layer 1" viewBox="0 0 100 100" width="135.168" height="135.168"><polygon points="100 15.4 100 20.99 84.28 5.6 67.13 22.4 49.99 5.6 32.85 22.4 15.71 5.6 0 21 0 15.4 15.71 0 32.85 16.8 49.99 0 67.13 16.8 84.28 0 100 15.4" fill="#e8e8e8"/><polygon points="100 34.8 100 40.39 84.28 25 67.13 41.8 49.99 25 32.85 41.8 15.71 25 0 40.4 0 34.8 15.71 19.4 32.85 36.2 49.99 19.4 67.13 36.2 84.28 19.4 100 34.8" fill="#e8e8e8"/><polygon points="100 73.6 100 79.19 84.28 63.8 67.13 80.6 49.99 63.8 32.85 80.6 15.71 63.8 0 79.2 0 73.6 15.71 58.2 32.85 75 49.99 58.2 67.13 75 84.28 58.2 100 73.6" fill="#e8e8e8"/><polygon points="100 54.2 100 59.79 84.28 44.4 67.13 61.2 49.99 44.4 32.85 61.2 15.71 44.4 0 59.8 0 54.2 15.71 38.8 32.85 55.6 49.99 38.8 67.13 55.6 84.28 38.8 100 54.2" fill="#e8e8e8"/><polygon points="100 93 100 98.59 84.28 83.2 67.13 100 49.99 83.2 32.85 100 15.71 83.2 0 98.6 0 93 15.71 77.6 32.85 94.4 49.99 77.6 67.13 94.4 84.28 77.6 100 93" fill="#e8e8e8"/></svg></g><g transform="translate(1081.34,&#10;                                675.84) rotate(90, 67.584, 67.584)"><svg xmlns="http://www.w3.org/2000/svg" id="Layer_1" data-name="Layer 1" viewBox="0 0 100 100" width="135.168" height="135.168"><polygon points="97 12.912 87.088 3 50 40.088 12.912 3 3 12.912 40.088 50 3 87.088 12.912 97 50 59.912 87.088 97 97 87.088 59.912 50 97 12.912" fill="none" stroke="#ffce62" stroke-linecap="round" stroke-linejoin="round" stroke-width="6"/></svg></g><g transform="translate(1216.51,&#10;                                675.84) rotate(90, 67.584, 67.584)"><svg xmlns="http://www.w3.org/2000/svg" id="Layer_1" data-name="Layer 1" viewBox="0 0 100 100" width="135.168" height="135.168"><polygon points="97 12.912 87.088 3 50 40.088 12.912 3 3 12.912 40.088 50 3 87.088 12.912 97 50 59.912 87.088 97 97 87.088 59.912 50 97 12.912" fill="none" stroke="#ffce62" stroke-linecap="round" stroke-linejoin="round" stroke-width="6"/></svg></g></g></svg>