<svg class="border shadow-md" viewBox="0 0 438.57 779.68" style="width: 438.57px; height: 779.68px;" xmlns="http://www.w3.org/2000/svg" preserveAspectRatio="none"><rect class="bg" id="bg" x="0" y="0" width="438.57" height="779.68" fill="#ffffff"/><path d="M 0 -51.97866666666666 L 0 -51.98&#10;                L 73.00 -25.99&#10;                L 109.6425 -51.98 L 109.6425 -51.98&#10;                L 146.19 -25.99&#10;                L 219.285 -51.98 L 219.285 -51.98&#10;                L 267.28 -11.98&#10;                L 328.9275 -51.98 L 328.9275 -51.98&#10;                L 380.93 -12.98&#10;                L 438.57 -51.98 L 438.57 -51.98&#10;                L 475.12 -25.98&#10;                L 548.2125 -51.98  V 779.68 H 0 V -51.98 Z" fill="#FFFFFF"/><path d="M 0 0 L 0 0.00&#10;                L 57.00 25.99&#10;                L 109.6425 0.00 L 109.6425 0.00&#10;                L 177.64 32.00&#10;                L 219.285 0.00 L 219.285 0.00&#10;                L 293.28 25.99&#10;                L 328.9275 0.00 L 328.9275 0.00&#10;                L 408.93 50.00&#10;                L 438.57 0.00 L 438.57 0.00&#10;                L 475.12 25.99&#10;                L 548.2125 0.00  V 779.68 H 0 V 0.00 Z" fill="#fdf8ef"/><path d="M 0 51.97866666666666 L 0 51.98&#10;                L 39.00 102.98&#10;                L 109.6425 51.98 L 109.6425 51.98&#10;                L 146.19 77.97&#10;                L 219.285 51.98 L 219.285 51.98&#10;                L 297.28 77.97&#10;                L 328.9275 51.98 L 328.9275 51.98&#10;                L 370.93 77.97&#10;                L 438.57 51.98 L 438.57 51.98&#10;                L 487.57 77.97&#10;                L 548.2125 51.98  V 779.68 H 0 V 51.98 Z" fill="#fbf1df"/><path d="M 0 103.95733333333332 L 0 103.96&#10;                L 36.55 129.95&#10;                L 109.6425 103.96 L 109.6425 103.96&#10;                L 167.64 129.95&#10;                L 219.285 103.96 L 219.285 103.96&#10;                L 281.28 129.95&#10;                L 328.9275 103.96 L 328.9275 103.96&#10;                L 375.93 135.96&#10;                L 438.57 103.96 L 438.57 103.96&#10;                L 479.57 129.95&#10;                L 548.2125 103.96  V 779.68 H 0 V 103.96 Z" fill="#f9eacf"/><path d="M 0 155.93599999999998 L 0 155.94&#10;                L 49.00 181.93&#10;                L 109.6425 155.94 L 109.6425 155.94&#10;                L 184.64 181.93&#10;                L 219.285 155.94 L 219.285 155.94&#10;                L 292.28 181.93&#10;                L 328.9275 155.94 L 328.9275 155.94&#10;                L 365.48 204.94&#10;                L 438.57 155.94 L 438.57 155.94&#10;                L 475.12 181.93&#10;                L 548.2125 155.94  V 779.68 H 0 V 155.94 Z" fill="#f7e3bf"/><path d="M 0 207.91466666666665 L 0 207.91&#10;                L 36.55 251.91&#10;                L 109.6425 207.91 L 109.6425 207.91&#10;                L 149.64 233.90&#10;                L 219.285 207.91 L 219.285 207.91&#10;                L 289.28 233.90&#10;                L 328.9275 207.91 L 328.9275 207.91&#10;                L 384.93 233.90&#10;                L 438.57 207.91 L 438.57 207.91&#10;                L 475.12 251.91&#10;                L 548.2125 207.91  V 779.68 H 0 V 207.91 Z" fill="#f5dcaf"/><path d="M 0 259.8933333333333 L 0 259.89&#10;                L 46.00 297.89&#10;                L 109.6425 259.89 L 109.6425 259.89&#10;                L 150.64 290.89&#10;                L 219.285 259.89 L 219.285 259.89&#10;                L 255.83 285.88&#10;                L 328.9275 259.89 L 328.9275 259.89&#10;                L 365.48 285.88&#10;                L 438.57 259.89 L 438.57 259.89&#10;                L 475.12 298.89&#10;                L 548.2125 259.89  V 779.68 H 0 V 259.89 Z" fill="#f3d59f"/><path d="M 0 311.87199999999996 L 0 311.87&#10;                L 36.55 343.87&#10;                L 109.6425 311.87 L 109.6425 311.87&#10;                L 146.19 339.87&#10;                L 219.285 311.87 L 219.285 311.87&#10;                L 255.83 362.87&#10;                L 328.9275 311.87 L 328.9275 311.87&#10;                L 387.93 349.87&#10;                L 438.57 311.87 L 438.57 311.87&#10;                L 475.12 337.86&#10;                L 548.2125 311.87  V 779.68 H 0 V 311.87 Z" fill="#f1ce8f"/><path d="M 0 363.85066666666665 L 0 363.85&#10;                L 36.55 396.85&#10;                L 109.6425 363.85 L 109.6425 363.85&#10;                L 172.64 389.84&#10;                L 219.285 363.85 L 219.285 363.85&#10;                L 255.83 407.85&#10;                L 328.9275 363.85 L 328.9275 363.85&#10;                L 365.48 406.85&#10;                L 438.57 363.85 L 438.57 363.85&#10;                L 484.57 389.84&#10;                L 548.2125 363.85  V 779.68 H 0 V 363.85 Z" fill="#efc77f"/><path d="M 0 415.8293333333333 L 0 415.83&#10;                L 65.00 441.82&#10;                L 109.6425 415.83 L 109.6425 415.83&#10;                L 146.19 455.83&#10;                L 219.285 415.83 L 219.285 415.83&#10;                L 286.28 445.83&#10;                L 328.9275 415.83 L 328.9275 415.83&#10;                L 383.93 460.83&#10;                L 438.57 415.83 L 438.57 415.83&#10;                L 475.12 441.83&#10;                L 548.2125 415.83  V 779.68 H 0 V 415.83 Z" fill="#edc06f"/><path d="M 0 467.80799999999994 L 0 467.81&#10;                L 60.00 493.80&#10;                L 109.6425 467.81 L 109.6425 467.81&#10;                L 146.19 510.81&#10;                L 219.285 467.81 L 219.285 467.81&#10;                L 255.83 493.80&#10;                L 328.9275 467.81 L 328.9275 467.81&#10;                L 404.93 493.80&#10;                L 438.57 467.81 L 438.57 467.81&#10;                L 482.57 493.80&#10;                L 548.2125 467.81  V 779.68 H 0 V 467.81 Z" fill="#ebb95f"/><path d="M 0 519.7866666666666 L 0 519.79&#10;                L 70.00 555.79&#10;                L 109.6425 519.79 L 109.6425 519.79&#10;                L 185.64 545.78&#10;                L 219.285 519.79 L 219.285 519.79&#10;                L 255.83 545.78&#10;                L 328.9275 519.79 L 328.9275 519.79&#10;                L 365.48 545.78&#10;                L 438.57 519.79 L 438.57 519.79&#10;                L 475.12 567.79&#10;                L 548.2125 519.79  V 779.68 H 0 V 519.79 Z" fill="#e9b24f"/><path d="M 0 571.7653333333333 L 0 571.77&#10;                L 36.55 607.77&#10;                L 109.6425 571.77 L 109.6425 571.77&#10;                L 168.64 597.75&#10;                L 219.285 571.77 L 219.285 571.77&#10;                L 293.28 597.75&#10;                L 328.9275 571.77 L 328.9275 571.77&#10;                L 376.93 608.77&#10;                L 438.57 571.77 L 438.57 571.77&#10;                L 484.57 597.75&#10;                L 548.2125 571.77  V 779.68 H 0 V 571.77 Z" fill="#e7ab3f"/><path d="M 0 623.7439999999999 L 0 623.74&#10;                L 36.55 649.73&#10;                L 109.6425 623.74 L 109.6425 623.74&#10;                L 163.64 649.73&#10;                L 219.285 623.74 L 219.285 623.74&#10;                L 262.28 649.73&#10;                L 328.9275 623.74 L 328.9275 623.74&#10;                L 365.48 671.74&#10;                L 438.57 623.74 L 438.57 623.74&#10;                L 476.57 652.74&#10;                L 548.2125 623.74  V 779.68 H 0 V 623.74 Z" fill="#e5a42f"/><path d="M 0 675.7226666666666 L 0 675.72&#10;                L 76.00 701.71&#10;                L 109.6425 675.72 L 109.6425 675.72&#10;                L 161.64 706.72&#10;                L 219.285 675.72 L 219.285 675.72&#10;                L 263.28 701.71&#10;                L 328.9275 675.72 L 328.9275 675.72&#10;                L 365.48 720.72&#10;                L 438.57 675.72 L 438.57 675.72&#10;                L 475.12 701.71&#10;                L 548.2125 675.72  V 779.68 H 0 V 675.72 Z" fill="#e39d1f"/><path d="M 0 727.7013333333333 L 0 727.70&#10;                L 71.00 756.70&#10;                L 109.6425 727.70 L 109.6425 727.70&#10;                L 161.64 753.69&#10;                L 219.285 727.70 L 219.285 727.70&#10;                L 255.83 776.70&#10;                L 328.9275 727.70 L 328.9275 727.70&#10;                L 365.48 775.70&#10;                L 438.57 727.70 L 438.57 727.70&#10;                L 475.12 768.70&#10;                L 548.2125 727.70  V 779.68 H 0 V 727.70 Z" fill="#e1960f"/></svg>